<svg width="48" height="48" viewBox="0 0 48 48" fill="none" xmlns="http://www.w3.org/2000/svg">
<path d="M48 11.1472C47.8124 2.21352 47.8006 4.14462 47.9836 1.36029C47.9944 1.19523 47.8705 1.05257 47.7062 1.04123C34.475 0.131378 33.9732 0.026481 32.9481 0.026481C14.8976 0.0249643 24.3742 -0.271504 0.280629 1.15738C0.116953 1.16723 -0.00817533 1.30784 0.000417322 1.47229C1.55315 31.4238 1.49644 26.5377 0.703266 46.4995C0.697603 46.6432 0.793696 46.7702 0.932731 46.803C2.73594 47.2319 2.41633 47.0631 6.62267 47.066C6.62951 47.0682 14.5055 46.2036 14.5126 46.2028C14.5498 46.209 25.4039 48 25.4416 48C25.4498 48 25.458 47.9995 25.4663 47.9987C38.1869 46.9271 34.5408 47.186 42.7473 46.7287L47.5661 47.7088C47.7535 47.7466 47.9256 47.6009 47.9234 47.4113C47.8191 37.6577 48 11.1472 48 11.1472ZM28.4394 10.4361C28.4752 10.4273 28.5265 10.4148 28.5904 10.3978L32.0204 9.62061C33.7772 9.17797 34.0366 9.07023 35.5403 8.35954H35.5404C36.2347 8.60173 38.1377 9.66051 38.6203 10.2684C38.9389 10.6708 38.918 10.7603 38.818 11.1913C38.7986 11.274 38.7766 11.3693 38.7534 11.4817C38.7518 11.4891 38.7506 11.4966 38.7494 11.5042L37.9952 17.4381C37.2488 17.4658 37.1866 17.4083 36.9802 17.2172C36.895 17.1382 36.7889 17.0399 36.602 16.914C35.4672 16.1481 31.753 13.3852 30.5803 12.4342L28.2748 10.5719L28.2934 10.5539C28.3182 10.5288 28.3404 10.4952 28.3553 10.4631C28.367 10.4541 28.4125 10.4428 28.4394 10.4361ZM33.7844 40.3134C33.7168 40.2457 4.96277 9.59878 4.94168 9.55647L7.45388 7.61899L42.5591 30.9891C42.2688 31.8248 42.1532 32.784 41.9788 33.5806C41.3619 36.3937 40.5689 37.6243 39.3284 40.2973C37.5535 40.3682 33.9066 40.3545 33.7844 40.3134ZM7.62735 32.0218C7.95057 31.241 8.39487 29.9847 8.76845 29.3482C10.6046 30.5018 17.7775 37.7476 18.4013 38.7259C18.0557 38.8548 16.5717 39.0766 14.106 40.0669C12.5436 40.6933 11.0684 41.2878 9.64345 40.8016C9.50136 40.7535 9.12256 40.4304 8.56076 39.9428C7.53478 39.0523 6.60579 38.4111 6.0655 38.0903C5.14409 37.5435 5.2877 37.6587 7.62735 32.0218Z" fill="#EA473B"/>
</svg>
