<svg width="32" height="32" viewBox="0 0 32 32" fill="none" xmlns="http://www.w3.org/2000/svg">
<g clip-path="url(#clip0)">
<path fill-rule="evenodd" clip-rule="evenodd" d="M7.07738 22.0003H0.922406C0.413077 22.0003 -0.000106812 22.5484 -0.000106812 23.2247V28.7757C-0.000106812 29.452 0.413077 30.0003 0.922406 30.0003H7.07738C7.58551 30.0003 7.99989 29.4501 7.99989 28.7757V23.2247C7.99989 22.5503 7.58551 22.0003 7.07738 22.0003Z" fill="#9FB1CC"/>
<path fill-rule="evenodd" clip-rule="evenodd" d="M17.0767 14.0003H10.9231C10.4133 14.0003 9.99989 14.5631 9.99989 15.257V28.7436C9.99989 29.4376 10.4133 30.0003 10.9231 30.0003H17.0767C17.5853 30.0003 17.9999 29.4357 17.9999 28.7436V15.257C17.9999 14.565 17.5851 14.0003 17.0767 14.0003Z" fill="#9FB1CC"/>
<path fill-rule="evenodd" clip-rule="evenodd" d="M31.0622 2.00034H20.9376C20.4196 2.00034 19.9999 2.57204 19.9999 3.27678V28.7236C19.9999 29.4286 20.4196 30.0003 20.9376 30.0003H31.0622C31.5799 30.0003 31.9999 29.4286 31.9999 28.7236V3.27678C31.9999 2.57171 31.5799 2.00034 31.0622 2.00034Z" fill="#9FB1CC"/>
</g>
<defs>
<clipPath id="clip0">
<rect width="32" height="32" fill="white"/>
</clipPath>
</defs>
</svg>
