<svg width="32" height="32" viewBox="0 0 32 32" fill="none" xmlns="http://www.w3.org/2000/svg">
<g clip-path="url(#clip0)">
<path fill-rule="evenodd" clip-rule="evenodd" d="M6.12112 18.8494C6.4241 18.8494 6.6846 18.7203 6.86795 18.4793C7.0513 18.2384 7.10647 17.9527 7.02566 17.661C6.93875 17.3463 6.85916 17.0299 6.78689 16.712C6.11917 13.7674 6.12356 10.7283 7.16311 8.02448C7.97439 5.91413 9.40164 4.02546 11.6101 2.56379C11.6631 2.52863 11.6814 2.46051 11.6531 2.40363C11.6248 2.34675 11.5596 2.32038 11.4998 2.34137C9.52053 3.03327 7.97146 4.21222 6.78933 5.68561C5.15554 7.72175 4.24539 10.3074 3.88015 12.9266C3.63894 14.6561 3.63406 16.4029 3.81423 18.0135C3.86697 18.4932 4.27346 18.8482 4.74514 18.8477L6.12112 18.8494Z" fill="#9FB1CC"/>
<path fill-rule="evenodd" clip-rule="evenodd" d="M8.19511 23.0238C7.71269 23.0238 7.31913 23.4171 7.31913 23.8996V23.9613C7.31913 24.4438 7.71269 24.8371 8.19511 24.8371H24.586C25.0684 24.8371 25.462 24.4438 25.462 23.9613V23.8996C25.462 23.4171 25.0684 23.0238 24.586 23.0238H8.19511Z" fill="#9FB1CC"/>
<path fill-rule="evenodd" clip-rule="evenodd" d="M27.3842 26.7137H5.39904C4.8822 26.7137 4.46081 27.1353 4.46081 27.6522V30.9991C4.46081 31.5174 4.88098 31.9376 5.39904 31.9376H27.3842C27.9025 31.9376 28.3226 31.5174 28.3226 30.9991V27.6522C28.3226 27.1353 27.901 26.7137 27.3842 26.7137Z" fill="#9FB1CC"/>
<path fill-rule="evenodd" clip-rule="evenodd" d="M8.90871 8.69219C8.0132 11.0213 8.02053 13.6888 8.6133 16.3021C8.89943 17.5635 9.32546 18.8172 9.85573 20.0189C9.87233 20.0562 9.88601 20.0943 9.89748 20.1324L10.0479 20.5362C10.1875 20.9102 10.5279 21.1465 10.9273 21.1465H21.9143C22.4312 21.1465 22.8528 20.7249 22.8528 20.2081V19.4566C22.8528 19.1944 22.7451 18.9576 22.572 18.7872L18.4102 14.6253C18.1541 14.3694 18.1084 13.9732 18.3089 13.6731C18.4693 13.4329 18.865 13.2378 19.1558 13.2759C19.3091 13.2962 19.4602 13.3709 19.5864 13.4971L20.6704 14.5814C22.0777 15.9883 24.3948 15.9883 25.8018 14.5814C26.9773 13.4058 27.2569 11.7007 26.4529 10.2344C25.9346 9.28936 25.2466 8.08941 24.5169 6.92266C23.9829 6.06914 23.4173 5.221 22.864 4.48418L21.3799 0.62529C21.3382 0.474167 21.2578 0.331345 21.1389 0.212448C20.7725 -0.154007 20.1785 -0.154007 19.812 0.212448L18.3748 1.64946C18.2459 1.83891 18.0479 1.98149 17.8069 2.03569C16.6018 2.30888 15.5239 2.66338 14.5637 3.08721C11.5689 4.40898 9.78957 6.40093 8.90871 8.69219ZM19.8391 6.68877H19.8709C20.3892 6.68877 20.8094 7.10894 20.8094 7.62725C20.8094 8.14556 20.3892 8.56572 19.8709 8.56572H19.8391C19.3208 8.56572 18.9007 8.14556 18.9007 7.62725C18.9007 7.10894 19.3208 6.68877 19.8391 6.68877Z" fill="#9FB1CC"/>
</g>
<defs>
<clipPath id="clip0">
<rect width="32" height="32" fill="white"/>
</clipPath>
</defs>
</svg>
