<svg width="32" height="32" viewBox="0 0 32 32" fill="none" xmlns="http://www.w3.org/2000/svg">
<g clip-path="url(#clip0)">
<path fill-rule="evenodd" clip-rule="evenodd" d="M1.04566 12.6679C0.400394 13.3132 3.8147e-06 14.2038 3.8147e-06 15.1845C3.8147e-06 16.1652 0.400394 17.0561 1.04566 17.7014C1.69092 18.3466 2.58179 18.747 3.5625 18.747H3.6875V11.622H3.5625C2.58179 11.622 1.69092 12.0226 1.04566 12.6679Z" fill="#9FB1CC"/>
<path fill-rule="evenodd" clip-rule="evenodd" d="M13.5 9.87201H6.5C5.98218 9.87201 5.5625 10.2919 5.5625 10.8095V19.5595C5.5625 20.0773 5.98218 20.497 6.5 20.497H13.5V9.87201Z" fill="#9FB1CC"/>
<path fill-rule="evenodd" clip-rule="evenodd" d="M31.9976 4.37236C31.9978 4.16655 31.9302 3.95927 31.7913 3.78642C31.4678 3.38408 30.8789 3.32011 30.4766 3.6436C29.1028 4.75419 27.7539 5.76371 26.4126 6.62138C25.0815 7.47246 23.7446 8.18437 22.3801 8.71147C21.0928 9.20854 19.7722 9.52226 18.4414 9.70073C17.4216 9.8372 16.396 9.89457 15.375 9.8936V20.4739C16.4016 20.469 17.4304 20.5186 18.4504 20.648C19.7756 20.8164 21.0928 21.1209 22.3801 21.618C23.7446 22.1451 25.0813 22.857 26.4126 23.708C27.7368 24.5545 29.0681 25.5491 30.4236 26.6429C30.5908 26.7989 30.8157 26.8943 31.0625 26.8943C31.5803 26.8943 32 26.4746 32 25.9568V4.37236H31.9976Z" fill="#9FB1CC"/>
<path fill-rule="evenodd" clip-rule="evenodd" d="M14.0961 22.3719H7.36927L8.45716 26.4318C8.6576 27.1796 9.14417 27.7767 9.76722 28.1366C10.3917 28.4972 11.1525 28.6205 11.8998 28.4203L12.7448 28.1937C13.4928 27.9933 14.09 27.5067 14.4498 26.8837L14.4481 26.8827L14.4498 26.88C14.8099 26.2562 14.9332 25.4967 14.7335 24.7511L14.0961 22.3719Z" fill="#9FB1CC"/>
</g>
<defs>
<clipPath id="clip0">
<rect width="32" height="32" fill="white"/>
</clipPath>
</defs>
</svg>
