<svg width="32" height="32" viewBox="0 0 32 32" fill="none" xmlns="http://www.w3.org/2000/svg">
<g clip-path="url(#clip0)">
<path d="M12.0889 12.2205C13.292 12.8391 14.647 13.166 16.0076 13.166C17.3682 13.166 18.7232 12.8391 19.926 12.2205C20.238 12.0601 20.4343 11.7388 20.4348 11.3882L20.4378 9.34204C20.4385 8.7644 20.2109 8.21777 19.7969 7.80322C19.3821 7.3877 18.8098 7.14966 18.2271 7.14966C16.7407 7.14966 15.2546 7.14771 13.7686 7.14771C13.1834 7.14771 12.6328 7.37646 12.2183 7.7915C11.8042 8.20605 11.5764 8.7561 11.5774 9.34033L11.5801 11.3882C11.5806 11.7388 11.7771 12.0601 12.0889 12.2205Z" fill="#9FB1CC"/>
<path d="M16.0063 6.47168C17.7905 6.47168 19.2422 5.02002 19.2422 3.23584C19.2422 1.45166 17.7905 0 16.0063 0C14.2222 0 12.7705 1.45166 12.7705 3.23584C12.7705 5.02002 14.2222 6.47168 16.0063 6.47168Z" fill="#9FB1CC"/>
<path d="M6.64966 25.9832C5.16333 25.9832 3.67725 25.9814 2.19117 25.9814C1.60596 25.9814 1.05542 26.21 0.640872 26.6252C0.22681 27.0398 -0.000973435 27.5898 3.12708e-06 28.1738L0.00293281 30.2217C0.0034211 30.5725 0.19971 30.8936 0.511722 31.054C1.7146 31.6728 3.06958 31.9998 4.43018 31.9998C5.79077 31.9998 7.146 31.6728 8.34888 31.054C8.66065 30.8936 8.85718 30.5725 8.85767 30.2217L8.86035 28.1758C8.86109 27.5979 8.63355 27.0513 8.21973 26.6367C7.80493 26.2214 7.23267 25.9832 6.64966 25.9832Z" fill="#9FB1CC"/>
<path d="M4.4292 25.3054C6.21362 25.3054 7.66504 23.854 7.66504 22.0696C7.66504 20.2854 6.21338 18.834 4.4292 18.834C2.64502 18.834 1.1936 20.2854 1.1936 22.0696C1.1936 23.854 2.64502 25.3054 4.4292 25.3054Z" fill="#9FB1CC"/>
<path d="M31.3594 26.6367C30.9446 26.2214 30.3723 25.9832 29.7896 25.9832C28.3032 25.9832 26.8171 25.9814 25.3311 25.9814C24.7459 25.9814 24.1953 26.21 23.7808 26.6252C23.3667 27.0398 23.1389 27.5896 23.1399 28.1738L23.1426 30.2217C23.1431 30.5725 23.3394 30.8936 23.6514 31.054C24.8545 31.6726 26.2095 31.9998 27.5701 31.9998C28.9307 31.9998 30.2857 31.6726 31.4885 31.054C31.8006 30.8936 31.9968 30.5723 31.9973 30.2217L32.0003 28.1755C32.001 27.5979 31.7735 27.0513 31.3594 26.6367Z" fill="#9FB1CC"/>
<path d="M27.5688 25.3054C29.3533 25.3054 30.8047 23.854 30.8047 22.0696C30.8047 20.2854 29.353 18.834 27.5688 18.834C25.7847 18.834 24.333 20.2854 24.333 22.0696C24.333 23.854 25.7847 25.3054 27.5688 25.3054Z" fill="#9FB1CC"/>
<path d="M20.3708 21.9312L16.9446 19.9531V16C16.9446 15.4822 16.5249 15.0625 16.0071 15.0625C15.4892 15.0625 15.0696 15.4822 15.0696 16V19.9543L11.6416 21.9336C11.1931 22.1924 11.0395 22.7659 11.2983 23.2141C11.4719 23.5149 11.7871 23.6831 12.1111 23.6831C12.2702 23.6831 12.4314 23.6426 12.5791 23.5574L16.0083 21.5774L19.4333 23.5552C19.581 23.6404 19.7422 23.6809 19.9013 23.6809C20.2253 23.6809 20.5403 23.5127 20.7141 23.2119C20.9729 22.7634 20.8193 22.1902 20.3708 21.9312Z" fill="#9FB1CC"/>
</g>
<defs>
<clipPath id="clip0">
<rect width="32" height="32" fill="white"/>
</clipPath>
</defs>
</svg>
