<svg width="32" height="32" viewBox="0 0 32 32" fill="none" xmlns="http://www.w3.org/2000/svg">
<path fill-rule="evenodd" clip-rule="evenodd" d="M23.6262 12.3342C24.7 14.1076 25.3179 16.1877 25.3179 18.412C25.3179 21.6574 24.0025 24.5956 21.8757 26.7223C19.749 28.8491 16.8108 30.1645 13.5654 30.1645C10.3201 30.1645 7.38184 28.8491 5.25513 26.7223C3.12842 24.5956 1.81299 21.6574 1.81299 18.412C1.81299 15.1667 3.12842 12.2285 5.25513 10.1017C7.38184 7.97504 10.3201 6.65961 13.5654 6.65961C15.7983 6.65961 17.8857 7.28216 19.6633 8.36322L21.0274 7.00677C18.8836 5.6015 16.3198 4.78412 13.5654 4.78412C9.80225 4.78412 6.39527 6.30951 3.9292 8.77582C1.46289 11.2419 -0.0624962 14.6489 -0.0624962 18.412C-0.0624962 22.1752 1.46289 25.5822 3.9292 28.0483C6.39527 30.5146 9.80225 32.04 13.5654 32.04C17.3286 32.04 20.7356 30.5146 23.2017 28.0483C25.668 25.5822 27.1934 22.1752 27.1934 18.412C27.1934 15.6696 26.3831 13.1166 24.9893 10.9789L23.6262 12.3342Z" fill="#9FB1CC"/>
<path fill-rule="evenodd" clip-rule="evenodd" d="M18.3082 9.71008C16.8993 8.94031 15.2831 8.50281 13.5646 8.50281C10.8283 8.50281 8.3512 9.61194 6.55799 11.4052C4.76477 13.1984 3.6554 15.6757 3.6554 18.4117C3.6554 21.1481 4.76477 23.6251 6.55799 25.4183C8.3512 27.2116 10.8283 28.3209 13.5646 28.3209C16.3007 28.3209 18.778 27.2116 20.5712 25.4183C22.3644 23.6251 23.4735 21.1481 23.4735 18.4117C23.4735 16.6979 23.0385 15.0856 22.2726 13.6796L20.8729 15.0714C21.3385 16.0887 21.5983 17.2199 21.5983 18.4117C21.5983 20.6303 20.6991 22.6388 19.2452 24.0924C17.7916 25.5463 15.7831 26.4454 13.5646 26.4454C11.3461 26.4454 9.33753 25.5463 7.88392 24.0924C6.43006 22.6388 5.53089 20.6303 5.53089 18.4117C5.53089 16.1932 6.43006 14.1847 7.88392 12.7311C9.33753 11.2772 11.3461 10.3781 13.5646 10.3781C14.757 10.3781 15.8888 10.6381 16.9064 11.1041L18.3082 9.71008Z" fill="#9FB1CC"/>
<path fill-rule="evenodd" clip-rule="evenodd" d="M13.5657 14.0988C13.6722 14.0983 13.7789 14.1019 13.8851 14.1097L15.4793 12.5243C14.8765 12.3285 14.2335 12.2225 13.5657 12.2225C11.8568 12.2225 10.3096 12.9154 9.18951 14.0355C8.06964 15.1554 7.37677 16.7025 7.37677 18.4115C7.37677 20.1202 8.06964 21.6676 9.18976 22.7875C10.3096 23.9076 11.857 24.6002 13.5657 24.6002C15.2747 24.6002 16.8218 23.9076 17.942 22.7875C19.0618 21.6676 19.7545 20.1205 19.7545 18.4115C19.7545 17.7399 19.6475 17.0931 19.4495 16.4877L17.8653 18.0634C17.8743 18.1783 17.8792 18.2943 17.8792 18.4115C17.8792 19.6027 17.3963 20.681 16.6158 21.4616C15.8353 22.2421 14.7569 22.725 13.5657 22.725C12.3743 22.725 11.296 22.2421 10.5154 21.4616C9.73517 20.681 9.25226 19.6027 9.25226 18.4115C9.25226 17.2203 9.73517 16.142 10.5157 15.3615C11.3118 14.5651 12.4393 14.1036 13.5657 14.0988Z" fill="#9FB1CC"/>
<path fill-rule="evenodd" clip-rule="evenodd" d="M31.663 3.89628C31.5016 3.7349 31.296 3.64457 31.0851 3.62552L28.8729 3.26346L28.3769 0.839634C28.3456 0.656284 28.2594 0.480259 28.1183 0.338413C27.754 -0.0277982 27.162 -0.029263 26.796 0.334751L24.0294 3.08817C23.8341 3.28251 23.7426 3.54178 23.755 3.79691L23.7687 6.91752L12.8234 17.8028C12.4574 18.167 12.4557 18.7588 12.8197 19.125C13.184 19.4912 13.776 19.493 14.142 19.1287L25.0907 8.24003L28.1679 8.24344C28.4345 8.26688 28.7091 8.17655 28.9132 7.97269L31.663 5.2222C32.0292 4.85599 32.0292 4.26249 31.663 3.89628Z" fill="#9FB1CC"/>
</svg>
