<svg width="12" height="13" viewBox="0 0 12 13" fill="none" xmlns="http://www.w3.org/2000/svg">
<path d="M5.35916 12.274C5.2125 12.274 5.08783 12.2227 4.98516 12.12C4.8825 12.0173 4.83116 11.8927 4.83116 11.746V7.456H0.607164C0.460497 7.456 0.335831 7.40467 0.233164 7.302C0.130497 7.19933 0.0791641 7.06733 0.0791641 6.906V5.762C0.0791641 5.60067 0.130497 5.476 0.233164 5.388C0.335831 5.28533 0.460497 5.234 0.607164 5.234H4.83116V1.054C4.83116 0.892666 4.8825 0.768 4.98516 0.68C5.08783 0.577333 5.2125 0.525999 5.35916 0.525999H6.63516C6.7965 0.525999 6.92116 0.577333 7.00916 0.68C7.11183 0.768 7.16316 0.892666 7.16316 1.054V5.234H11.3872C11.5485 5.234 11.6732 5.28533 11.7612 5.388C11.8638 5.476 11.9152 5.60067 11.9152 5.762V6.906C11.9152 7.06733 11.8638 7.19933 11.7612 7.302C11.6585 7.40467 11.5338 7.456 11.3872 7.456H7.16316V11.746C7.16316 11.8927 7.11183 12.0173 7.00916 12.12C6.92116 12.2227 6.7965 12.274 6.63516 12.274H5.35916Z" fill="#CCCDCD"/>
</svg>
