<svg width="7" height="7" viewBox="0 0 7 7" fill="none" xmlns="http://www.w3.org/2000/svg">
<path d="M0.952 5.858C0.886667 5.774 0.854 5.69933 0.854 5.634C0.854 5.55 0.886667 5.47533 0.952 5.41L3.01 3.352L0.952 1.28C0.886667 1.196 0.854 1.12133 0.854 1.056C0.854 0.972 0.886667 0.897333 0.952 0.832L1.4 0.37C1.46533 0.304666 1.54 0.271999 1.624 0.271999C1.71733 0.271999 1.792 0.304666 1.848 0.37L3.906 2.442L5.978 0.384C6.05267 0.309333 6.12733 0.271999 6.202 0.271999C6.29533 0.271999 6.37 0.309333 6.426 0.384L6.888 0.832C6.95333 0.887999 6.986 0.962666 6.986 1.056C6.986 1.14 6.95333 1.21467 6.888 1.28L4.816 3.352L6.888 5.41C6.95333 5.466 6.986 5.54067 6.986 5.634C6.986 5.718 6.95333 5.79267 6.888 5.858L6.426 6.306C6.36067 6.37133 6.286 6.404 6.202 6.404C6.13667 6.404 6.062 6.37133 5.978 6.306L3.906 4.248L1.848 6.306C1.792 6.37133 1.71733 6.404 1.624 6.404C1.54 6.404 1.46533 6.37133 1.4 6.306L0.952 5.858Z" fill="#0A68F5"/>
</svg>
