<svg width="14" height="16" viewBox="0 0 14 16" fill="none" xmlns="http://www.w3.org/2000/svg">
<path d="M0.882812 0V15.9078L2.79152 13.5727L4.20611 15.3421L5.61881 13.5774L7.02964 15.3421L8.4414 13.5774L9.85317 15.3421L11.264 13.5774L13.1181 15.8927V0H0.882812V0ZM12.1769 13.2104L11.264 12.0706L9.85317 13.8353L8.4414 12.0706L7.02964 13.8353L5.61881 12.0706L4.20611 13.8353L2.79905 12.0753L1.82399 13.2687V0.941176H12.1769V13.2104ZM9.35058 3.76471H3.70352V2.82353H9.35058V3.76471ZM7.46822 7.52941H3.70352V6.58824H7.46822V7.52941ZM10.2739 5.64706H3.68564V4.70588H10.2739V5.64706ZM3.70634 9.41177H10.2946V10.3529H3.70634V9.41177Z" fill="white"/>
</svg>
