<svg width="17" height="15" viewBox="0 0 17 15" fill="none" xmlns="http://www.w3.org/2000/svg">
<path d="M9 2.988V0H8V2.988C4.436 3.093 0 4.27 0 5.475V12.516C0 13.343 0.673 14.016 1.5 14.016H3.29L5.286 10.085C5.853 10.189 6.999 10.359 8.459 10.359C9.938 10.359 11.153 10.185 11.747 10.082L13.655 14.016H15.5C16.327 14.016 17 13.343 17 12.516V5.475C17 4.27 12.563 3.092 9 2.988ZM16 12.516C16 12.791 15.775 13.016 15.5 13.016H14.282L12.306 8.946L11.92 9.031C11.905 9.034 10.405 9.36 8.458 9.36C6.517 9.36 5.143 9.037 5.129 9.033L4.745 8.94L2.677 13.015H1.5C1.225 13.015 1 12.79 1 12.515V5.6C1.502 5.163 4.38 4.082 8 3.989V4H9V3.987C12.619 4.081 15.498 5.162 16 5.599V12.516ZM5 6.02H5.998V7.02H5V8.04H4V7.02H3V6.02H4V5H5V6.02ZM12.5 8.02C13.327 8.02 14 7.347 14 6.52C14 5.693 13.327 5.02 12.5 5.02C11.673 5.02 11 5.692 11 6.52C11 7.348 11.673 8.02 12.5 8.02ZM12.5 6.02C12.775 6.02 13 6.245 13 6.52C13 6.795 12.775 7.02 12.5 7.02C12.225 7.02 12 6.795 12 6.52C12 6.245 12.225 6.02 12.5 6.02Z" fill="white"/>
</svg>
