<svg width="9" height="16" viewBox="0 0 9 16" fill="none" xmlns="http://www.w3.org/2000/svg">
<path d="M4.42603 0.94873L0.692383 3.6612V15.0871L4.44391 12.4574L8.24721 15.0786V3.65744L4.42603 0.94873ZM7.30697 13.2866L4.44109 11.3101L1.6345 13.2781V4.14026L4.4345 2.10638L7.30791 4.14402V13.2866H7.30697ZM2.82697 5.64802C2.82697 6.55626 3.56579 7.29508 4.47403 7.29508C5.38226 7.29508 6.12109 6.55626 6.12109 5.64802C6.12109 4.73979 5.38226 4.00097 4.47403 4.00097C3.56579 4.00097 2.82697 4.73979 2.82697 5.64802ZM4.47403 4.94214C4.86274 4.94214 5.17991 5.25932 5.17991 5.64802C5.17991 6.03673 4.86274 6.35391 4.47403 6.35391C4.08532 6.35391 3.76815 6.03673 3.76815 5.64802C3.76815 5.25932 4.08532 4.94214 4.47403 4.94214Z" fill="white"/>
</svg>
