<svg width="16" height="16" viewBox="0 0 16 16" fill="none" xmlns="http://www.w3.org/2000/svg">
<path d="M8.01563 0C3.60433 0 0.015625 3.58871 0.015625 8C0.015625 12.4113 3.60433 16 8.01563 16C12.4269 16 16.0156 12.4113 16.0156 8C16.0156 3.58871 12.426 0 8.01563 0ZM12.2255 7.52941C12.3177 6.15529 12.8043 4.84235 13.6345 3.74588C14.4439 4.81224 14.9559 6.11294 15.05 7.52941H12.2255ZM15.05 8.47059C14.9559 9.88706 14.4439 11.1887 13.6335 12.2551C12.8043 11.1576 12.3177 9.84471 12.2264 8.47059H15.05ZM13.0133 3.02024C11.9836 4.31059 11.3822 5.88141 11.2843 7.52941H8.47116V0.963765C10.2396 1.07859 11.8349 1.83812 13.0133 3.02024ZM7.52998 0.965647V7.52941H4.7441C4.6481 5.88047 4.04668 4.31059 3.01798 3.02024C4.1888 1.84471 5.7728 1.08612 7.52998 0.965647ZM0.980331 7.52941C1.07445 6.11294 1.58645 4.81129 2.3968 3.74494C3.22598 4.84141 3.71163 6.15435 3.80386 7.52941H0.980331ZM3.80292 8.47059C3.71163 9.84659 3.22692 11.1586 2.3968 12.2551C1.58645 11.1887 1.07445 9.88706 0.980331 8.47059H3.80292ZM3.01704 12.9798C4.04763 11.6894 4.6481 10.1195 4.7441 8.47059H7.52998V15.0344C5.7728 14.9139 4.1888 14.1553 3.01704 12.9798ZM8.47116 15.0362V8.47059H11.2853C11.3822 10.1186 11.9836 11.6894 13.0123 12.9807C11.834 14.1619 10.2396 14.9214 8.47116 15.0362Z" fill="white"/>
</svg>
