<svg width="8" height="16" viewBox="0 0 8 16" fill="none" xmlns="http://www.w3.org/2000/svg">
<path d="M6.536 9.01312L6.52457 9.00371C6.50971 8.99335 6.49943 8.98112 6.48343 8.97171L6.48 8.97547L4.57143 7.76896V2.39798C5.87429 2.60314 6.85714 3.49344 6.85714 4.55879L7.42743 4.61526L8 4.55879C8 2.97771 6.504 1.67708 4.57143 1.45686V0H3.42857V1.45686C1.496 1.67708 0 2.97771 0 4.55879C0 5.44533 0.481143 6.28857 1.31543 6.88618L1.30971 6.89089L1.35543 6.92006L3.42857 8.23199V13.6011C2.12571 13.3959 1.14286 12.5056 1.14286 11.4403H0C0 13.0214 1.496 14.322 3.42857 14.5422V16H4.57143V14.5422C6.504 14.322 8 13.0214 8 11.4403C8 10.4935 7.464 9.61543 6.536 9.01312ZM2.08229 6.19352C1.48571 5.77378 1.14286 5.17993 1.14286 4.55879C1.14286 3.49344 2.12571 2.60314 3.42857 2.39798V7.04523L2.08229 6.19352ZM4.57143 13.6011V8.95571L5.83314 9.75472C6.48114 10.1754 6.85714 10.7862 6.85714 11.4403C6.85714 12.5056 5.87429 13.3959 4.57143 13.6011Z" fill="white"/>
</svg>
