<svg width="22" height="22" viewBox="0 0 22 22" fill="none" xmlns="http://www.w3.org/2000/svg">
<g clip-path="url(#clip0)">
<path fill-rule="evenodd" clip-rule="evenodd" d="M4.86577 15.1252H0.634228C0.284064 15.1252 0 15.502 0 15.967V19.7833C0 20.2482 0.284064 20.6252 0.634228 20.6252H4.86577C5.21511 20.6252 5.5 20.2469 5.5 19.7833V15.967C5.5 15.5033 5.21511 15.1252 4.86577 15.1252Z" fill="#9FB1CC"/>
<path fill-rule="evenodd" clip-rule="evenodd" d="M11.7403 9.62524H7.5097C7.1592 9.62524 6.875 10.0121 6.875 10.4892V19.7613C6.875 20.2384 7.1592 20.6252 7.5097 20.6252H11.7403C12.09 20.6252 12.375 20.237 12.375 19.7613V10.4892C12.375 10.0135 12.0898 9.62524 11.7403 9.62524Z" fill="#9FB1CC"/>
<path fill-rule="evenodd" clip-rule="evenodd" d="M21.3553 1.37524H14.3947C14.0386 1.37524 13.75 1.76829 13.75 2.2528V19.7475C13.75 20.2322 14.0386 20.6252 14.3947 20.6252H21.3553C21.7113 20.6252 22 20.2322 22 19.7475V2.2528C22 1.76806 21.7113 1.37524 21.3553 1.37524Z" fill="#9FB1CC"/>
</g>
<defs>
<clipPath id="clip0">
<rect width="22" height="22" fill="white"/>
</clipPath>
</defs>
</svg>
