<svg width="22" height="22" viewBox="0 0 22 22" fill="none" xmlns="http://www.w3.org/2000/svg">
<g clip-path="url(#clip0)">
<path fill-rule="evenodd" clip-rule="evenodd" d="M4.20838 12.959C4.41668 12.959 4.59577 12.8702 4.72182 12.7045C4.84787 12.5388 4.88581 12.3425 4.83025 12.1419C4.7705 11.9255 4.71578 11.708 4.6661 11.4895C4.20703 9.46507 4.21006 7.37571 4.92475 5.51681C5.4825 4.06594 6.46373 2.76748 7.98208 1.76258C8.0185 1.73841 8.03109 1.69158 8.01162 1.65247C7.99215 1.61336 7.94733 1.59523 7.90621 1.60967C6.54548 2.08535 5.48049 2.89588 4.66777 3.90883C3.54454 5.30868 2.91881 7.08634 2.66771 8.887C2.50188 10.076 2.49852 11.277 2.62239 12.3843C2.65865 12.7141 2.93811 12.9581 3.26239 12.9578L4.20838 12.959Z" fill="#9FB1CC"/>
<path fill-rule="evenodd" clip-rule="evenodd" d="M5.63422 15.8289C5.30255 15.8289 5.03198 16.0993 5.03198 16.4309V16.4734C5.03198 16.8051 5.30255 17.0755 5.63422 17.0755H16.9029C17.2346 17.0755 17.5052 16.8051 17.5052 16.4734V16.4309C17.5052 16.0993 17.2346 15.8289 16.9029 15.8289H5.63422Z" fill="#9FB1CC"/>
<path fill-rule="evenodd" clip-rule="evenodd" d="M18.8267 18.3655H3.71193C3.3566 18.3655 3.06689 18.6553 3.06689 19.0107V21.3117C3.06689 21.668 3.35576 21.9569 3.71193 21.9569H18.8267C19.183 21.9569 19.4719 21.668 19.4719 21.3117V19.0107C19.4719 18.6553 19.182 18.3655 18.8267 18.3655Z" fill="#9FB1CC"/>
<path fill-rule="evenodd" clip-rule="evenodd" d="M6.12485 5.97581C5.50919 7.57706 5.51422 9.41096 5.92176 11.2076C6.11847 12.0749 6.41137 12.9367 6.77593 13.7629C6.78734 13.7886 6.79674 13.8148 6.80463 13.8409L6.90802 14.1186C7.00403 14.3757 7.23801 14.5382 7.51261 14.5382H15.0662C15.4215 14.5382 15.7114 14.2483 15.7114 13.893V13.3763C15.7114 13.1961 15.6374 13.0333 15.5184 12.9161L12.6571 10.0548C12.481 9.87891 12.4497 9.6065 12.5875 9.40022C12.6977 9.23505 12.9698 9.10094 13.1697 9.12713C13.2751 9.14106 13.379 9.19242 13.4658 9.2792L14.211 10.0246C15.1785 10.9919 16.7715 10.9919 17.7388 10.0246C18.547 9.21642 18.7392 8.04418 18.1865 7.03609C17.8301 6.38636 17.3572 5.56139 16.8555 4.75925C16.4884 4.17246 16.0995 3.58936 15.7191 3.0828L14.6988 0.429814C14.6701 0.325916 14.6149 0.227726 14.5331 0.145985C14.2812 -0.105953 13.8728 -0.105953 13.6209 0.145985L12.6328 1.13393C12.5442 1.26418 12.408 1.3622 12.2424 1.39946C11.4139 1.58728 10.6728 1.831 10.0127 2.12238C7.95371 3.0311 6.73044 4.40056 6.12485 5.97581ZM13.6395 4.59846H13.6613C14.0177 4.59846 14.3065 4.88732 14.3065 5.24366C14.3065 5.6 14.0177 5.88886 13.6613 5.88886H13.6395C13.2832 5.88886 12.9943 5.6 12.9943 5.24366C12.9943 4.88732 13.2832 4.59846 13.6395 4.59846Z" fill="#9FB1CC"/>
</g>
<defs>
<clipPath id="clip0">
<rect width="22" height="22" fill="white"/>
</clipPath>
</defs>
</svg>
