<svg width="22" height="22" viewBox="0 0 22 22" fill="none" xmlns="http://www.w3.org/2000/svg">
<g clip-path="url(#clip0)">
<path fill-rule="evenodd" clip-rule="evenodd" d="M0.718887 8.70929C0.275269 9.15291 0 9.76521 0 10.4395C0 11.1137 0.275269 11.7262 0.718887 12.1698C1.16251 12.6134 1.77498 12.8887 2.44922 12.8887H2.53516V7.99023H2.44922C1.77498 7.99023 1.16251 8.26567 0.718887 8.70929Z" fill="#9FB1CC"/>
<path fill-rule="evenodd" clip-rule="evenodd" d="M9.28125 6.78711H4.46875C4.11275 6.78711 3.82422 7.07581 3.82422 7.43164V13.4473C3.82422 13.8033 4.11275 14.0918 4.46875 14.0918H9.28125V6.78711Z" fill="#9FB1CC"/>
<path fill-rule="evenodd" clip-rule="evenodd" d="M21.9983 3.00612C21.9985 2.86463 21.952 2.72212 21.8565 2.60329C21.6341 2.32668 21.2292 2.2827 20.9526 2.5051C20.0082 3.26863 19.0808 3.96268 18.1587 4.55232C17.2436 5.13744 16.3244 5.62688 15.3863 5.98926C14.5013 6.331 13.5934 6.54668 12.6785 6.66937C11.9774 6.7632 11.2722 6.80264 10.5703 6.80197V14.0759C11.2761 14.0726 11.9834 14.1067 12.6847 14.1956C13.5957 14.3114 14.5013 14.5207 15.3863 14.8625C16.3244 15.2249 17.2434 15.7143 18.1587 16.2994C19.0691 16.8813 19.9843 17.5651 20.9162 18.3171C21.0312 18.4243 21.1858 18.49 21.3555 18.49C21.7115 18.49 22 18.2014 22 17.8454V3.00612H21.9983Z" fill="#9FB1CC"/>
<path fill-rule="evenodd" clip-rule="evenodd" d="M9.69109 15.3809H5.06641L5.81433 18.172C5.95213 18.6861 6.28665 19.0966 6.715 19.3441C7.14435 19.592 7.66736 19.6767 8.18114 19.5391L8.76206 19.3833C9.27634 19.2455 9.68689 18.911 9.9343 18.4827L9.93313 18.482L9.9343 18.4801C10.1819 18.0513 10.2666 17.5291 10.1293 17.0165L9.69109 15.3809Z" fill="#9FB1CC"/>
</g>
<defs>
<clipPath id="clip0">
<rect width="22" height="22" fill="white"/>
</clipPath>
</defs>
</svg>
