<svg width="22" height="22" viewBox="0 0 22 22" fill="none" xmlns="http://www.w3.org/2000/svg">
<g clip-path="url(#clip0)">
<path d="M8.31111 8.40158C9.13826 8.8269 10.0698 9.05165 11.0052 9.05165C11.9406 9.05165 12.8722 8.8269 13.6992 8.40158C13.9137 8.2913 14.0486 8.07042 14.049 7.82939L14.051 6.42267C14.0515 6.02554 13.895 5.64973 13.6104 5.36473C13.3252 5.07906 12.9318 4.91541 12.5311 4.91541C11.5093 4.91541 10.4876 4.91406 9.4659 4.91406C9.06357 4.91406 8.68508 5.07133 8.40007 5.35667C8.1154 5.64168 7.9588 6.01984 7.95947 6.42149L7.96132 7.82939C7.96166 8.07042 8.09677 8.2913 8.31111 8.40158Z" fill="#9FB1CC"/>
<path d="M11.0044 4.44928C12.231 4.44928 13.2291 3.45126 13.2291 2.22464C13.2291 0.998016 12.231 0 11.0044 0C9.7778 0 8.77979 0.998016 8.77979 2.22464C8.77979 3.45126 9.7778 4.44928 11.0044 4.44928Z" fill="#9FB1CC"/>
<path d="M4.57164 17.8635C3.54979 17.8635 2.52811 17.8623 1.50643 17.8623C1.1041 17.8623 0.725603 18.0194 0.4406 18.3049C0.155932 18.5899 -0.000669237 18.9681 2.14987e-06 19.3696L0.00201631 20.7775C0.002352 21.0187 0.137301 21.2394 0.351809 21.3497C1.17879 21.7751 2.11034 21.9999 3.04575 21.9999C3.98116 21.9999 4.91287 21.7751 5.73985 21.3497C5.9542 21.2394 6.08931 21.0187 6.08965 20.7775L6.09149 19.3709C6.092 18.9736 5.93556 18.5978 5.65106 18.3128C5.36589 18.0273 4.97246 17.8635 4.57164 17.8635Z" fill="#9FB1CC"/>
<path d="M3.04503 17.3974C4.27182 17.3974 5.26967 16.3995 5.26967 15.1727C5.26967 13.9461 4.27165 12.9482 3.04503 12.9482C1.81841 12.9482 0.820557 13.9461 0.820557 15.1727C0.820557 16.3995 1.81841 17.3974 3.04503 17.3974Z" fill="#9FB1CC"/>
<path d="M21.5596 18.3128C21.2744 18.0273 20.881 17.8635 20.4803 17.8635C19.4585 17.8635 18.4368 17.8623 17.4151 17.8623C17.0128 17.8623 16.6343 18.0194 16.3493 18.3049C16.0646 18.5899 15.908 18.9679 15.9087 19.3696L15.9105 20.7775C15.9109 21.0187 16.0458 21.2394 16.2603 21.3497C17.0875 21.775 18.019 21.9999 18.9544 21.9999C19.8899 21.9999 20.8214 21.775 21.6484 21.3497C21.8629 21.2394 21.9978 21.0185 21.9982 20.7775L22.0002 19.3707C22.0007 18.9736 21.8443 18.5978 21.5596 18.3128Z" fill="#9FB1CC"/>
<path d="M18.9536 17.3974C20.1804 17.3974 21.1783 16.3995 21.1783 15.1727C21.1783 13.9461 20.1803 12.9482 18.9536 12.9482C17.727 12.9482 16.729 13.9461 16.729 15.1727C16.729 16.3995 17.727 17.3974 18.9536 17.3974Z" fill="#9FB1CC"/>
<path d="M14.0049 15.0777L11.6494 13.7178V11C11.6494 10.644 11.3608 10.3555 11.0048 10.3555C10.6488 10.3555 10.3603 10.644 10.3603 11V13.7186L8.00357 15.0793C7.69523 15.2573 7.58966 15.6515 7.76758 15.9597C7.88691 16.1665 8.1036 16.2821 8.32634 16.2821C8.43577 16.2821 8.54655 16.2543 8.6481 16.1957L11.0057 14.8345L13.3604 16.1942C13.4619 16.2528 13.5727 16.2806 13.6822 16.2806C13.9049 16.2806 14.1214 16.165 14.2409 15.9582C14.4188 15.6499 14.3133 15.2558 14.0049 15.0777Z" fill="#9FB1CC"/>
</g>
<defs>
<clipPath id="clip0">
<rect width="22" height="22" fill="white"/>
</clipPath>
</defs>
</svg>
