<svg width="22" height="22" viewBox="0 0 22 22" fill="none" xmlns="http://www.w3.org/2000/svg">
<g clip-path="url(#clip0)">
<path fill-rule="evenodd" clip-rule="evenodd" d="M16.243 8.47972C16.9812 9.69896 17.406 11.129 17.406 12.6583C17.406 14.8894 16.5017 16.9095 15.0396 18.3716C13.5775 19.8337 11.5574 20.7381 9.32623 20.7381C7.09505 20.7381 5.07501 19.8337 3.6129 18.3716C2.15079 16.9095 1.24643 14.8894 1.24643 12.6583C1.24643 10.4271 2.15079 8.40704 3.6129 6.94493C5.07501 5.48282 7.09505 4.57846 9.32623 4.57846C10.8614 4.57846 12.2964 5.00647 13.5185 5.74969L14.4563 4.81714C12.9824 3.85101 11.2199 3.28906 9.32623 3.28906C6.73905 3.28906 4.39674 4.33777 2.70132 6.03335C1.00574 7.72877 -0.0429688 10.0711 -0.0429688 12.6583C-0.0429688 15.2454 1.00574 17.5877 2.70132 19.2832C4.39674 20.9788 6.73905 22.0275 9.32623 22.0275C11.9134 22.0275 14.2557 20.9788 15.9511 19.2832C17.6467 17.5877 18.6954 15.2454 18.6954 12.6583C18.6954 10.7728 18.1384 9.01767 17.1801 7.548L16.243 8.47972Z" fill="#9FB1CC"/>
<path fill-rule="evenodd" clip-rule="evenodd" d="M12.587 6.67571C11.6184 6.14648 10.5072 5.8457 9.32575 5.8457C7.44452 5.8457 5.74155 6.60823 4.50871 7.84107C3.27588 9.0739 2.51318 10.777 2.51318 12.6581C2.51318 14.5393 3.27588 16.2423 4.50871 17.4751C5.74155 18.708 7.44452 19.4707 9.32575 19.4707C11.2068 19.4707 12.9099 18.708 14.1428 17.4751C15.3756 16.2423 16.1381 14.5393 16.1381 12.6581C16.1381 11.4798 15.839 10.3714 15.3125 9.40473L14.3502 10.3616C14.6703 11.061 14.8489 11.8387 14.8489 12.6581C14.8489 14.1833 14.2307 15.5642 13.2312 16.5636C12.2318 17.5631 10.851 18.1813 9.32575 18.1813C7.80052 18.1813 6.41965 17.5631 5.42029 16.5636C4.42076 15.5642 3.80258 14.1833 3.80258 12.6581C3.80258 11.1329 4.42076 9.752 5.42029 8.75264C6.41965 7.75311 7.80052 7.13493 9.32575 7.13493C10.1455 7.13493 10.9236 7.31369 11.6232 7.63411L12.587 6.67571Z" fill="#9FB1CC"/>
<path fill-rule="evenodd" clip-rule="evenodd" d="M9.32645 9.69298C9.39963 9.69264 9.47298 9.69516 9.54599 9.70053L10.642 8.61053C10.2276 8.47592 9.78551 8.40308 9.32645 8.40308C8.15152 8.40308 7.08788 8.87943 6.3178 9.64951C5.54788 10.4194 5.07153 11.4831 5.07153 12.658C5.07153 13.8328 5.54788 14.8966 6.31796 15.6665C7.08788 16.4366 8.15169 16.9127 9.32645 16.9127C10.5014 16.9127 11.565 16.4366 12.3351 15.6665C13.105 14.8966 13.5812 13.8329 13.5812 12.658C13.5812 12.1962 13.5077 11.7516 13.3716 11.3354L12.2824 12.4186C12.2886 12.4977 12.292 12.5774 12.292 12.658C12.292 13.4769 11.96 14.2183 11.4234 14.7549C10.8868 15.2915 10.1454 15.6235 9.32645 15.6235C8.50736 15.6235 7.76598 15.2915 7.22937 14.7549C6.69293 14.2183 6.36093 13.4769 6.36093 12.658C6.36093 11.8391 6.69293 11.0977 7.22954 10.5611C7.77689 10.0136 8.552 9.69634 9.32645 9.69298Z" fill="#9FB1CC"/>
<path fill-rule="evenodd" clip-rule="evenodd" d="M21.7684 2.67877C21.6574 2.56782 21.5161 2.50572 21.3711 2.49262L19.8502 2.24371L19.5092 0.577324C19.4877 0.451272 19.4284 0.330254 19.3314 0.232735C19.081 -0.019035 18.674 -0.020042 18.4224 0.230217L16.5203 2.12319C16.3861 2.2568 16.3231 2.43505 16.3317 2.61045L16.3411 4.75587L8.81617 12.2395C8.56457 12.4899 8.56339 12.8968 8.81365 13.1485C9.06408 13.4003 9.47111 13.4015 9.72271 13.1511L17.25 5.66509L19.3655 5.66744C19.5488 5.68356 19.7376 5.62145 19.8779 5.4813L21.7684 3.59034C22.0202 3.33857 22.0202 2.93054 21.7684 2.67877Z" fill="#9FB1CC"/>
</g>
<defs>
<clipPath id="clip0">
<rect width="22" height="22" fill="white"/>
</clipPath>
</defs>
</svg>
