<svg width="16" height="14" viewBox="0 0 16 14" fill="none" xmlns="http://www.w3.org/2000/svg">
<path d="M12.3078 9.46104C12.3078 10.1632 11.9416 11.3076 11.0767 11.3076C10.2108 11.3076 9.84471 10.1632 9.84471 9.46104C9.84471 8.75986 10.2108 7.61445 11.0767 7.61445C11.9416 7.61445 12.3078 8.75986 12.3078 9.46104ZM4.92329 7.61445C4.05835 7.61445 3.69224 8.75986 3.69224 9.46104C3.69224 10.1632 4.05835 11.3076 4.92329 11.3076C5.78824 11.3076 6.15435 10.1632 6.15435 9.46104C6.15435 8.75986 5.78824 7.61445 4.92329 7.61445ZM16 7.7688C16 8.83704 15.8946 9.97116 15.4136 10.9519C14.144 13.5194 10.6541 13.7688 8.15435 13.7688C5.616 13.7688 1.91435 13.5486 0.596706 10.9519C0.105412 9.98057 0 8.83704 0 7.7688C0 6.36457 0.384941 5.03845 1.30824 3.96174C1.13506 3.4328 1.04847 2.87469 1.04847 2.32598C1.04847 1.60504 1.21129 0.885039 1.53882 0.22998C3.05788 0.22998 4.02918 0.89351 5.18306 1.79704C6.15435 1.56645 7.15388 1.46104 8.15435 1.46104C9.05788 1.46104 9.97176 1.55798 10.8471 1.7688C11.9915 0.874686 12.9619 0.22998 14.4621 0.22998C14.7896 0.884098 14.9525 1.60504 14.9525 2.32598C14.9525 2.87469 14.8659 3.42245 14.6927 3.94198C15.616 5.0281 16 6.36457 16 7.7688ZM13.8456 9.46104C13.8456 7.98998 12.9525 6.6921 11.3845 6.6921C10.7501 6.6921 10.1449 6.80786 9.50965 6.89445C9.00988 6.97163 8.51012 6.99986 8 6.99986C7.48988 6.99986 6.99012 6.97163 6.49035 6.89445C5.86541 6.80786 5.24988 6.6921 4.61553 6.6921C3.04847 6.6921 2.15435 7.98998 2.15435 9.46104C2.15435 12.4032 4.84612 12.8549 7.19247 12.8549H8.80847C11.1548 12.8559 13.8456 12.4032 13.8456 9.46104Z" fill="white"/>
</svg>
