<svg width="16" height="16" viewBox="0 0 16 16" fill="none" xmlns="http://www.w3.org/2000/svg">
<path d="M12.2353 0H3.76471C1.69412 0 0 1.69412 0 3.76471V12.2353C0 14.3059 1.69412 16 3.76471 16H12.2353C14.3059 16 16 14.3059 16 12.2353V3.76471C16 1.69412 14.3059 0 12.2353 0ZM15.0588 12.2353C15.0588 13.792 13.792 15.0588 12.2353 15.0588H3.76471C2.208 15.0588 0.941176 13.792 0.941176 12.2353V6.58824H3.95953C3.69035 7.16235 3.52941 7.79576 3.52941 8.47059C3.52941 10.9355 5.53506 12.9412 8 12.9412C10.4649 12.9412 12.4706 10.9355 12.4706 8.47059C12.4706 7.79576 12.3096 7.16235 12.0405 6.58824H15.0588V12.2353ZM11.5294 8.47059C11.5294 10.4169 9.94635 12 8 12C6.05365 12 4.47059 10.4169 4.47059 8.47059C4.47059 6.52424 6.05365 4.94118 8 4.94118C9.94635 4.94118 11.5294 6.52424 11.5294 8.47059ZM11.4372 5.64706C10.6165 4.65035 9.38918 4 8 4C6.61082 4 5.38353 4.65035 4.56282 5.64706H0.941176V3.76471C0.941176 2.208 2.208 0.941176 3.76471 0.941176H12.2353C13.792 0.941176 15.0588 2.208 15.0588 3.76471V5.64706H11.4372ZM13.6038 2.56188V3.78353C13.6038 4.06494 13.3741 4.29459 13.0936 4.29459H11.8061C11.5238 4.29365 11.2941 4.064 11.2941 3.78353V2.56188C11.2941 2.28047 11.5238 2.05082 11.8061 2.05082H13.0936C13.3741 2.05082 13.6038 2.28047 13.6038 2.56188Z" fill="white"/>
</svg>
