<svg width="14" height="16" viewBox="0 0 14 16" fill="none" xmlns="http://www.w3.org/2000/svg">
<path d="M13.1415 5.85885C13.1415 9.4532 11.1434 12.129 8.20409 12.129C7.2168 12.129 6.2888 11.5944 5.97821 10.9873C5.44362 13.0937 5.33632 13.4974 5.33632 13.4974C5.14527 14.1996 4.75374 14.9026 4.40927 15.4494C3.42762 16.1431 3.33632 15.0692 3.33632 15.0692C3.31374 14.4254 3.32503 13.6527 3.49256 12.9638C3.49256 12.9638 3.67044 12.225 4.66903 7.98967C4.37256 7.40614 4.37256 6.53744 4.37256 6.53744C4.37256 5.1812 5.15844 4.16944 6.13444 4.16944C6.96738 4.16944 7.37115 4.80002 7.37115 5.55014C7.37115 6.38308 6.83468 7.63297 6.56268 8.78685C6.3368 9.76285 7.05021 10.5478 8.00174 10.5478C9.74009 10.5478 10.9043 8.32379 10.9043 5.6932C10.9043 3.68191 9.54903 2.18355 7.09727 2.18355C4.3255 2.18355 2.60032 4.25414 2.60032 6.56191C2.60032 7.36002 2.8375 7.91908 3.20644 8.35955C3.37397 8.56191 3.3975 8.63249 3.33727 8.87061C3.29115 9.0372 3.19609 9.44191 3.14809 9.59626C3.0888 9.83438 2.89774 9.9172 2.69632 9.83438C1.42291 9.3092 0.827148 7.90591 0.827148 6.33508C0.827148 3.7412 3.01538 0.624023 7.34762 0.624023C10.846 0.624023 13.1415 3.15767 13.1415 5.85885Z" fill="white"/>
</svg>
