<svg width="16" height="14" viewBox="0 0 16 14" fill="none" xmlns="http://www.w3.org/2000/svg">
<path d="M14.3558 3.74152C14.3661 3.88364 14.3661 4.02575 14.3661 4.16881C14.3661 8.50293 11.0664 13.4978 5.03624 13.4978C3.17835 13.4978 1.45224 12.9594 0 12.0258C0.264471 12.0559 0.518588 12.0653 0.792471 12.0653C2.32565 12.0653 3.73553 11.5476 4.86306 10.6648C3.42118 10.6347 2.21365 9.68975 1.79765 8.38999C2 8.42011 2.20329 8.44081 2.41506 8.44081C2.71059 8.44081 3.00518 8.40034 3.27906 8.32975C1.77694 8.02481 0.649412 6.70528 0.649412 5.11187C0.649412 5.10152 0.649412 5.08081 0.649412 5.0714C1.08612 5.31422 1.59341 5.46669 2.13176 5.4874C1.24894 4.89822 0.670118 3.89305 0.670118 2.75705C0.670118 2.14811 0.832941 1.58905 1.11718 1.10152C2.73129 3.09211 5.15765 4.39187 7.87859 4.53305C7.82682 4.28928 7.79671 4.03517 7.79671 3.78105C7.79671 1.97493 9.25929 0.50293 11.0758 0.50293C12.0198 0.50293 12.8725 0.898224 13.472 1.53822C14.2127 1.39611 14.9224 1.12222 15.5529 0.746694C15.3092 1.50811 14.7915 2.14811 14.1111 2.55281C14.7718 2.48222 15.4108 2.29964 16 2.04552C15.5529 2.69493 14.9948 3.27469 14.3558 3.74152Z" fill="white"/>
</svg>
